HIERARCHY
ROOT Hips
{
    OFFSET 0.000000 0.000000 0.000000
    CHANNELS 6 Xposition Yposition Zposition Zrotation Xrotation Yrotation
    JOINT Spine
    {
        OFFSET -0.000000 14.517291 0.000000
        CHANNELS 3 Zrotation Xrotation Yrotation
        JOINT Spine1
        {
            OFFSET -0.000000 37.558300 0.000000
            CHANNELS 3 Zrotation Xrotation Yrotation
            JOINT Neck
            {
                OFFSET -0.000000 37.404057 3.400369
                CHANNELS 3 Zrotation Xrotation Yrotation
                JOINT Head
                {
                    OFFSET -0.000000 24.785618 -3.540803
                    CHANNELS 3 Zrotation Xrotation Yrotation
                    End Site
                    {
                        OFFSET -0.000000 35.408028 0.000000
                    }
                }
            }
            JOINT LeftShoulder
            {
                OFFSET 6.992933 33.973492 -0.192664
                CHANNELS 3 Zrotation Xrotation Yrotation
                JOINT LeftArm
                {
                    OFFSET 21.527611 0.000000 0.000000
                    CHANNELS 3 Zrotation Xrotation Yrotation
                    JOINT LeftForeArm
                    {
                        OFFSET 56.353916 0.000000 0.000000
                        CHANNELS 3 Zrotation Xrotation Yrotation
                        JOINT LeftHand
                        {
                            OFFSET 47.774071 0.000000 0.000000
                            CHANNELS 3 Zrotation Xrotation Yrotation
                            End Site
                            {
                                OFFSET 26.556021 0.000000 0.000000
                            }
                        }
                    }
                }
            }
            JOINT RightShoulder
            {
                OFFSET -7.065357 33.973492 -0.192664
                CHANNELS 3 Zrotation Xrotation Yrotation
                JOINT RightArm
                {
                    OFFSET -21.527611 0.000000 0.000000
                    CHANNELS 3 Zrotation Xrotation Yrotation
                    JOINT RightForeArm
                    {
                        OFFSET -56.353916 0.000000 0.000000
                        CHANNELS 3 Zrotation Xrotation Yrotation
                        JOINT RightHand
                        {
                            OFFSET -47.774071 0.000000 0.000000
                            CHANNELS 3 Zrotation Xrotation Yrotation
                            End Site
                            {
                                OFFSET -26.556021 0.000000 0.000000
                            }
                        }
                    }
                }
            }
        }
    }
    JOINT LeftUpLeg
    {
        OFFSET 17.704014 0.000000 0.000000
        CHANNELS 3 Zrotation Xrotation Yrotation
        JOINT LeftLeg
        {
            OFFSET -0.000000 -81.181816 0.000000
            CHANNELS 3 Zrotation Xrotation Yrotation
            JOINT LeftFoot
            {
                OFFSET -0.000000 -62.821102 0.000000
                CHANNELS 3 Zrotation Xrotation Yrotation
                JOINT LeftToeBase
                {
                    OFFSET -0.000000 -11.507608 26.556021
                    CHANNELS 3 Zrotation Xrotation Yrotation
                    End Site
                    {
                        OFFSET -0.000000 0.000000 7.081605
                    }
                }
            }
        }
    }
    JOINT RightUpLeg
    {
        OFFSET -17.704014 0.000000 0.000000
        CHANNELS 3 Zrotation Xrotation Yrotation
        JOINT RightLeg
        {
            OFFSET -0.000000 -81.181816 0.000000
            CHANNELS 3 Zrotation Xrotation Yrotation
            JOINT RightFoot
            {
                OFFSET -0.000000 -62.821102 0.000000
                CHANNELS 3 Zrotation Xrotation Yrotation
                JOINT RightToeBase
                {
                    OFFSET -0.000000 -11.507608 26.556021
                    CHANNELS 3 Zrotation Xrotation Yrotation
                    End Site
                    {
                        OFFSET -0.000000 0.000000 7.081605
                    }
                }
            }
        }
    }
}
MOTION
Frames:    4
Frame Time:    0.008333
29.497791    150.779373    -53.038013    1.273001    1.071055    -55.423370    1.429341    -0.675457    -0.278076    3.921710    -0.046140    -0.094910    19.308903    1.238981    18.873228    -14.535608    6.273089    15.748060    13.390499    -2.437440    -19.823044    -5.024024    -20.025820    -35.842438    14.348078    -37.559696    -7.277108    -25.091070    -28.032410    -44.421333    -6.835461    2.714673    -0.697353    34.562817    5.979966    79.948921    11.645178    2.235946    107.986938    5.642251    -12.850999    19.889992    28.141699    -20.949102    14.342289    -13.132835    18.704895    -0.212782    -12.419116    3.947056    38.128914    0.000000    0.000000    0.000000    -22.455744    5.482833    -0.294894    4.045152    13.661736    -1.837312    15.818688    -16.305723    -14.186667    0.000000    0.000000    0.000000    
29.466938    150.777206    -53.045982    1.263198    1.063922    -55.398628    1.426703    -0.652579    -0.284499    3.914716    -0.064264    -0.096194    19.308388    1.241465    18.869963    -14.544168    6.268496    15.743816    13.387458    -2.442429    -19.819475    -5.009938    -20.009565    -35.834351    14.354892    -37.552395    -7.260770    -25.083630    -28.027435    -44.426105    -6.840174    2.701818    -0.701816    34.566212    5.996739    79.943542    11.652040    2.250700    107.986443    5.623931    -12.849214    19.889257    28.142273    -20.942036    14.320021    -13.135793    18.700871    -0.224951    -12.430455    3.946962    38.140118    0.000000    0.000000    0.000000    -22.447708    5.493844    -0.306990    4.047847    13.710272    -1.819620    15.805441    -16.342468    -14.193797    0.000000    0.000000    0.000000    
29.431292    150.773758    -53.055595    1.253622    1.061491    -55.364956    1.415590    -0.629601    -0.297705    3.925595    -0.094161    -0.099046    19.292311    1.249608    18.864620    -14.533037    6.266273    15.742570    13.380012    -2.440304    -19.827295    -5.007401    -20.024420    -35.819386    14.338346    -37.534451    -7.255311    -25.075363    -28.014055    -44.418068    -6.854086    2.709104    -0.692705    34.577450    5.990861    79.929863    11.664067    2.278895    107.992569    5.617751    -12.841430    19.880594    28.145460    -20.943199    14.298782    -13.131248    18.705862    -0.235213    -12.450026    3.941485    38.130623    0.000000    0.000000    0.000000    -22.430710    5.507989    -0.347053    4.046978    13.757612    -1.802929    15.796167    -16.381222    -14.192303    0.000000    0.000000    0.000000    
29.395702    150.770828    -53.064590    1.248425    1.063436    -55.328571    1.406783    -0.613978    -0.310558    3.928448    -0.121115    -0.102394    19.300076    1.261586    18.855644    -14.548738    6.266489    15.732843    13.389795    -2.418774    -19.829292    -4.999687    -20.031563    -35.816448    14.355794    -37.515289    -7.229324    -25.068142    -27.998156    -44.414734    -6.860373    2.706782    -0.686617    34.578823    5.990628    79.907555    11.666555    2.295262    108.007355    5.591875    -12.837719    19.883768    28.151661    -20.955379    14.283547    -13.131509    18.713860    -0.232235    -12.462646    3.950153    38.118034    0.000000    0.000000    0.000000    -22.410259    5.512836    -0.419562    4.035861    13.813445    -1.784698    15.786987    -16.406744    -14.167274    0.000000    0.000000    0.000000    
